HIERARCHY
ROOT joint_Root
{
	OFFSET 0.0 0.0 0.0
	CHANNELS 6 Xposition Yposition Zposition Zrotation Xrotation Yrotation 
	JOINT Hips
	{
		OFFSET 4.5925 91.4895 -427.239
		CHANNELS 6 Xposition Yposition Zposition Zrotation Xrotation Yrotation 
		JOINT Spine
		{
			OFFSET 15.7357 0.0 0.0
			CHANNELS 6 Xposition Yposition Zposition Zrotation Xrotation Yrotation 
			JOINT Chest
			{
				OFFSET 8.98455 -0.406207 0.0
				CHANNELS 6 Xposition Yposition Zposition Zrotation Xrotation Yrotation 
				JOINT Neck
				{
					OFFSET 16.3773 0.0 0.0
					CHANNELS 6 Xposition Yposition Zposition Zrotation Xrotation Yrotation 
					JOINT Head
					{
						OFFSET 6.45672 0.0 0.0
						CHANNELS 6 Xposition Yposition Zposition Zrotation Xrotation Yrotation 
						End Site
						{
							OFFSET 0.0 0.0 0.0
						}
					}
				}
				JOINT Shoulder_L
				{
					OFFSET 12.9942 -0.242716 4.98039
					CHANNELS 6 Xposition Yposition Zposition Zrotation Xrotation Yrotation 
					JOINT UpperArm_L
					{
						OFFSET 5.34809 0.0 0.0
						CHANNELS 6 Xposition Yposition Zposition Zrotation Xrotation Yrotation 
						JOINT LowerArm_L
						{
							OFFSET 24.3286 1.87007e-05 0.0
							CHANNELS 6 Xposition Yposition Zposition Zrotation Xrotation Yrotation 
							JOINT Hand_L
							{
								OFFSET 22.2916 0.0 0.0
								CHANNELS 6 Xposition Yposition Zposition Zrotation Xrotation Yrotation 
								End Site
								{
									OFFSET 0.0 0.0 0.0
								}
							}
						}
					}
				}
				JOINT Shoulder_R
				{
					OFFSET 12.9945 -0.242716 -4.98039
					CHANNELS 6 Xposition Yposition Zposition Zrotation Xrotation Yrotation 
					JOINT UpperArm_R
					{
						OFFSET -5.34813 0.0 0.0
						CHANNELS 6 Xposition Yposition Zposition Zrotation Xrotation Yrotation 
						JOINT LowerArm_R
						{
							OFFSET -24.3289 0.000322201 0.0
							CHANNELS 6 Xposition Yposition Zposition Zrotation Xrotation Yrotation 
							JOINT Hand_R
							{
								OFFSET -22.2915 -0.000108084 0.0
								CHANNELS 6 Xposition Yposition Zposition Zrotation Xrotation Yrotation 
								End Site
								{
									OFFSET 0.0 0.0 0.0
								}
							}
						}
					}
				}
			}
		}
		JOINT UpperLeg_L
		{
			OFFSET -2.19248 -6.46944 0.0
			CHANNELS 6 Xposition Yposition Zposition Zrotation Xrotation Yrotation 
			JOINT LowerLeg_L
			{
				OFFSET 39.0811 0.0 -1.23785e-05
				CHANNELS 6 Xposition Yposition Zposition Zrotation Xrotation Yrotation 
				JOINT Foot_L
				{
					OFFSET 40.9854 0.0 -1.26872e-05
					CHANNELS 6 Xposition Yposition Zposition Zrotation Xrotation Yrotation 
					JOINT Toes_L
					{
						OFFSET 11.7543 0.0 0.0
						CHANNELS 6 Xposition Yposition Zposition Zrotation Xrotation Yrotation 
						End Site
						{
							OFFSET 0.0 0.0 0.0
						}
					}
				}
			}
		}
		JOINT UpperLeg_R
		{
			OFFSET -2.19251 6.46944 0.0
			CHANNELS 6 Xposition Yposition Zposition Zrotation Xrotation Yrotation 
			JOINT LowerLeg_R
			{
				OFFSET -39.0811 -0.00228153 -0.0401928
				CHANNELS 6 Xposition Yposition Zposition Zrotation Xrotation Yrotation 
				JOINT Foot_R
				{
					OFFSET -40.9854 0.0 0.0
					CHANNELS 6 Xposition Yposition Zposition Zrotation Xrotation Yrotation 
					JOINT Toes_R
					{
						OFFSET -11.7543 0.0 0.0
						CHANNELS 6 Xposition Yposition Zposition Zrotation Xrotation Yrotation 
						End Site
						{
							OFFSET 0.0 0.0 0.0
						}
					}
				}
			}
		}
	}
}
MOTION
Frames:	7
Frame Time:	0.0333333
0.000000 0.000000 0.000000 0.000000 0.000000 -0.000000 1.487000 95.088200 -92.457900 88.391300 12.014700 -16.158400 15.735700 0.000005 -0.000001 33.649500 81.562800 -30.498600 8.984550 -0.406207 -0.000000 2.047050 -14.196000 6.576030 16.377300 -0.000001 -0.000001 -1.443730 -2.135630 0.424846 6.456720 -0.000001 -0.000000 -8.410800 4.956040 1.333650 12.994200 -0.242716 4.980390 -88.348300 -6.268790 -75.207000 5.348090 -0.000007 -0.000001 -62.755500 9.322730 -25.323900 24.328600 0.000019 0.000005 12.525700 0.388406 -88.252200 22.291600 -0.000001 0.000005 8.038850 5.473220 -5.491420 12.994500 -0.242716 -4.980390 90.150500 -0.404215 -69.577200 -5.348130 -0.000001 -0.000004 -57.106200 16.724500 27.470900 -24.328900 0.000322 -0.000009 -0.272024 -0.228405 -49.854800 -22.291500 -0.000108 -0.000004 10.304200 5.581460 -10.290000 -2.192480 -6.469440 -0.000000 -165.135000 -16.671200 6.881140 39.081100 -0.000007 -0.000012 0.102516 -0.196908 27.502700 40.985400 -0.000006 -0.000013 -3.407930 6.768120 -33.619100 11.754300 -0.000000 0.000003 -0.005261 -0.063974 -19.179900 -2.192510 6.469440 -0.000001 -173.353000 7.480720 123.864000 -39.081100 -0.002282 -0.040193 0.075430 -0.044557 58.327000 -40.985400 0.000008 0.000006 3.770700 0.364562 -62.276900 -11.754300 -0.000006 -0.000006 -0.017480 -0.152905 -22.815900
0.000000 0.000000 0.000000 0.000000 0.000000 -0.000000 1.935130 95.090200 -79.694500 91.663000 13.461100 -14.755300 15.735700 0.000005 -0.000001 31.018700 80.791800 -28.641800 8.984550 -0.406207 -0.000000 2.141360 -15.889900 5.071910 16.377300 -0.000001 -0.000001 -0.926837 -2.829850 0.918336 6.456720 -0.000001 -0.000000 -7.538130 5.156630 1.352490 12.994200 -0.242716 4.980390 -88.256800 -6.666840 -75.310700 5.348090 -0.000007 -0.000001 -64.011700 13.261800 -21.695700 24.328600 0.000019 0.000005 12.381400 0.792403 -86.395100 22.291600 -0.000001 0.000005 8.313680 5.475970 -5.595070 12.994500 -0.242716 -4.980390 90.095000 -0.239430 -68.342000 -5.348130 -0.000001 -0.000004 -57.639900 15.135800 28.276100 -24.328900 0.000322 -0.000009 -1.848020 -1.550770 -49.993800 -22.291500 -0.000108 -0.000004 11.389500 5.582290 -10.335700 -2.192480 -6.469440 -0.000000 -166.011000 -11.419900 10.307800 39.081100 -0.000007 -0.000012 0.171610 -0.233429 36.322100 40.985400 -0.000006 -0.000013 -0.869392 -0.692344 -33.886200 11.754300 -0.000000 0.000003 -0.005370 -0.065008 -19.222100 -2.192510 6.469440 -0.000001 -174.849000 14.092500 132.380000 -39.081100 -0.002282 -0.040193 -0.009841 0.019621 33.797800 -40.985400 0.000008 0.000006 0.831456 6.660910 -66.658000 -11.754300 -0.000006 -0.000006 -0.020791 -0.171630 -23.586700
0.000000 0.000000 0.000000 0.000000 0.000000 -0.000000 2.376390 93.949700 -66.591300 95.008700 14.254200 -12.143800 15.735700 0.000005 -0.000001 32.850400 80.227300 -31.529700 8.984550 -0.406207 -0.000000 3.142850 -16.456900 3.107030 16.377300 -0.000001 -0.000001 -0.314009 -3.853740 1.399570 6.456720 -0.000001 -0.000000 -7.377320 4.676890 1.378790 12.994200 -0.242716 4.980390 -88.256500 -6.806390 -75.595600 5.348090 -0.000007 -0.000001 -66.629200 16.725300 -17.315100 24.328600 0.000019 0.000005 11.778500 1.475070 -82.962100 22.291600 -0.000001 0.000005 8.709560 5.476150 -5.601760 12.994500 -0.242716 -4.980390 89.871700 0.306645 -67.300500 -5.348130 -0.000001 -0.000004 -59.106600 13.061000 27.589400 -24.328900 0.000322 -0.000009 -2.588970 -2.288490 -48.539600 -22.291500 -0.000108 -0.000004 12.229800 5.586830 -10.583600 -2.192480 -6.469440 -0.000000 -170.186000 -3.849690 14.361400 39.081100 -0.000007 -0.000012 0.248333 -0.232116 46.933100 40.985400 -0.000006 -0.000013 2.840110 -6.246310 -34.022000 11.754300 -0.000000 0.000003 -0.004540 -0.056951 -18.893700 -2.192510 6.469440 -0.000001 -176.495000 20.714500 139.481000 -39.081100 -0.002282 -0.040193 -0.073017 0.228245 18.493600 -40.985400 0.000008 0.000006 -2.585090 13.431800 -72.818200 -11.754300 -0.000006 -0.000006 -0.022189 -0.179123 -23.895700
0.000000 0.000000 0.000000 0.000000 0.000000 -0.000000 2.528570 91.903600 -53.869400 96.069300 12.827600 -10.278100 15.735700 0.000005 -0.000001 38.371600 80.568500 -37.486200 8.984550 -0.406207 -0.000000 4.174120 -14.794500 2.318500 16.377300 -0.000001 -0.000001 0.027834 -4.339780 1.369170 6.456720 -0.000001 -0.000000 -8.286050 3.588110 1.721720 12.994200 -0.242716 4.980390 -88.519200 -5.664850 -75.323800 5.348090 -0.000007 -0.000001 -68.096700 20.240200 -13.008900 24.328600 0.000019 0.000005 11.036200 2.392140 -77.919800 22.291600 -0.000001 0.000005 10.281300 5.475830 -5.589670 12.994500 -0.242716 -4.980390 89.197000 1.929360 -67.397100 -5.348130 -0.000001 -0.000004 -60.430200 10.918500 25.119200 -24.328900 0.000322 -0.000009 -3.884980 -3.587450 -47.334300 -22.291500 -0.000108 -0.000004 12.918200 5.599840 -11.330900 -2.192480 -6.469440 -0.000000 -173.649000 -0.434609 14.365600 39.081100 -0.000007 -0.000012 0.338995 -0.172417 63.041200 40.985400 -0.000006 -0.000013 0.890972 -6.377450 -33.251100 11.754300 -0.000000 0.000003 -0.002972 -0.040289 -18.215300 -2.192510 6.469440 -0.000001 -173.788000 27.217700 140.187000 -39.081100 -0.002282 -0.040193 -0.125342 0.379965 18.707600 -40.985400 0.000008 0.000006 -7.811080 15.679800 -74.455500 -11.754300 -0.000006 -0.000006 -0.022358 -0.180016 -23.932600
0.000000 0.000000 0.000000 0.000000 0.000000 -0.000000 2.588480 88.964900 -41.938300 94.502200 9.506620 -8.736650 15.735700 0.000005 -0.000001 47.430200 81.192200 -46.093100 8.984550 -0.406207 -0.000000 5.441180 -11.917500 3.246870 16.377300 -0.000001 -0.000001 -0.465458 -3.697370 0.542869 6.456720 -0.000001 -0.000000 -9.315680 2.597820 2.020160 12.994200 -0.242716 4.980390 -89.104900 -3.227800 -74.490200 5.348090 -0.000007 -0.000001 -67.630800 23.232200 -8.073420 24.328600 0.000019 0.000005 10.642800 3.798050 -70.584400 22.291600 -0.000001 0.000005 8.693150 5.479240 -5.719890 12.994500 -0.242716 -4.980390 88.057700 5.097970 -69.106800 -5.348130 -0.000001 -0.000004 -59.133000 10.356000 19.873700 -24.328900 0.000322 -0.000009 -5.364220 -4.719830 -48.764700 -22.291500 -0.000108 -0.000004 13.444100 5.615920 -12.343000 -2.192480 -6.469440 -0.000000 -173.751000 -1.910980 8.863420 39.081100 -0.000007 -0.000012 0.642414 -0.066613 84.079600 40.985400 -0.000006 -0.000013 -3.621280 -4.674910 -24.527400 11.754300 -0.000000 0.000003 -0.002755 -0.037799 -18.113900 -2.192510 6.469440 -0.000001 -172.105000 23.560100 137.756000 -39.081100 -0.002282 -0.040193 0.441357 -0.667941 33.259600 -40.985400 0.000008 0.000006 7.497960 6.472100 -76.237500 -11.754300 -0.000006 -0.000006 -0.031818 -0.225679 -25.823100
0.000000 0.000000 0.000000 0.000000 0.000000 -0.000000 2.244250 85.440500 -31.877200 90.654700 5.121920 -9.377160 15.735700 0.000005 -0.000001 57.647800 81.980800 -55.005700 8.984550 -0.406207 -0.000000 6.040300 -8.599950 5.740740 16.377300 -0.000001 -0.000001 -2.308800 -1.965600 -0.027632 6.456720 -0.000001 -0.000000 -10.460700 2.833420 0.844433 12.994200 -0.242716 4.980390 -90.120500 0.404382 -73.423900 5.348090 -0.000007 -0.000001 -65.062900 24.820900 -2.980870 24.328600 0.000019 0.000005 11.662500 6.997780 -59.455100 22.291600 -0.000001 0.000005 4.005160 5.474900 -5.555140 12.994500 -0.242716 -4.980390 86.906600 9.315630 -71.536100 -5.348130 -0.000001 -0.000004 -54.172300 10.629300 9.158870 -24.328900 0.000322 -0.000009 -6.039650 -4.698400 -52.249100 -22.291500 -0.000108 -0.000004 15.454000 5.630080 -13.333500 -2.192480 -6.469440 -0.000000 -171.926000 -6.074880 -4.633540 39.081100 -0.000007 -0.000012 1.004420 0.315225 107.421000 40.985400 -0.000006 -0.000013 -4.468120 -6.987710 -11.162900 11.754300 -0.000000 0.000003 -0.002322 -0.032683 -17.905800 -2.192510 6.469440 -0.000001 -171.434000 13.551400 133.631000 -39.081100 -0.002282 -0.040193 0.126455 -0.111943 47.741000 -40.985400 0.000008 0.000006 7.845050 0.943010 -63.019000 -11.754300 -0.000006 -0.000006 -0.018535 -0.159036 -23.068100
0.000000 0.000000 0.000000 0.000000 0.000000 -0.000000 1.818100 82.106600 -21.630700 87.010900 -0.828537 -7.178940 15.735700 0.000005 -0.000001 73.445200 81.521200 -69.953800 8.984550 -0.406207 -0.000000 8.667140 -4.780780 7.342440 16.377300 -0.000001 -0.000001 -3.630430 -0.086146 0.096736 6.456720 -0.000001 -0.000000 -11.182100 4.253140 -0.934198 12.994200 -0.242716 4.980390 -90.306600 0.970081 -72.457400 5.348090 -0.000007 -0.000001 -65.893000 24.098700 2.571710 24.328600 0.000019 0.000005 12.626500 13.345800 -44.150500 22.291600 -0.000001 0.000005 4.684670 5.518620 -7.295610 12.994500 -0.242716 -4.980390 86.876200 10.830800 -73.805200 -5.348130 -0.000001 -0.000004 -50.725600 8.980060 -7.168780 -24.328900 0.000322 -0.000009 -5.633490 -3.638610 -57.240300 -22.291500 -0.000108 -0.000004 18.998200 5.642320 -14.321700 -2.192480 -6.469440 -0.000000 -171.588000 -10.131800 -18.910600 39.081100 -0.000007 -0.000012 0.807219 0.598952 126.572000 40.985400 -0.000006 -0.000013 -4.018790 -3.613930 -2.144680 11.754300 -0.000000 0.000003 -0.003855 -0.049934 -18.607900 -2.192510 6.469440 -0.000001 -170.462000 3.618880 137.485000 -39.081100 -0.002282 -0.040193 -0.584219 0.326101 60.964200 -40.985400 0.000008 0.000006 7.774120 -4.865080 -76.086800 -11.754300 -0.000006 -0.000006 -0.007568 -0.084473 -20.012500
